<mxfile host="app.diagrams.net" modified="2023-09-19T20:16:32.644Z" agent="Mozilla/5.0 (Windows NT 10.0; Win64; x64) AppleWebKit/537.36 (KHTML, like Gecko) Chrome/116.0.0.0 Safari/537.36" etag="nhu4sa1uWGmT7nBK08u0" version="21.6.8" type="device" pages="4">
  <diagram name="Clases" id="2YBvvXClWsGukQMizWep">
    <mxGraphModel dx="1034" dy="1570" grid="1" gridSize="10" guides="1" tooltips="1" connect="1" arrows="1" fold="1" page="1" pageScale="1" pageWidth="850" pageHeight="1100" math="0" shadow="0">
      <root>
        <mxCell id="0" />
        <mxCell id="1" parent="0" />
        <mxCell id="gF1a9MIEd-exsyjLZ0xj-34" value="" style="edgeStyle=orthogonalEdgeStyle;rounded=0;orthogonalLoop=1;jettySize=auto;html=1;" parent="1" source="gF1a9MIEd-exsyjLZ0xj-2" edge="1">
          <mxGeometry relative="1" as="geometry">
            <mxPoint x="375" y="160" as="targetPoint" />
          </mxGeometry>
        </mxCell>
        <mxCell id="gF1a9MIEd-exsyjLZ0xj-35" value="estado" style="edgeLabel;html=1;align=center;verticalAlign=middle;resizable=0;points=[];" parent="gF1a9MIEd-exsyjLZ0xj-34" vertex="1" connectable="0">
          <mxGeometry x="-0.2174" y="1" relative="1" as="geometry">
            <mxPoint x="-1" y="-31" as="offset" />
          </mxGeometry>
        </mxCell>
        <mxCell id="gF1a9MIEd-exsyjLZ0xj-2" value="Tamagochi" style="swimlane;fontStyle=1;align=center;verticalAlign=top;childLayout=stackLayout;horizontal=1;startSize=26;horizontalStack=0;resizeParent=1;resizeParentMax=0;resizeLast=0;collapsible=1;marginBottom=0;whiteSpace=wrap;html=1;" parent="1" vertex="1">
          <mxGeometry x="300" y="-120" width="160" height="148" as="geometry" />
        </mxCell>
        <mxCell id="gF1a9MIEd-exsyjLZ0xj-3" value="&lt;br&gt;" style="text;strokeColor=none;fillColor=none;align=left;verticalAlign=top;spacingLeft=4;spacingRight=4;overflow=hidden;rotatable=0;points=[[0,0.5],[1,0.5]];portConstraint=eastwest;whiteSpace=wrap;html=1;" parent="gF1a9MIEd-exsyjLZ0xj-2" vertex="1">
          <mxGeometry y="26" width="160" height="14" as="geometry" />
        </mxCell>
        <mxCell id="gF1a9MIEd-exsyjLZ0xj-4" value="" style="line;strokeWidth=1;fillColor=none;align=left;verticalAlign=middle;spacingTop=-1;spacingLeft=3;spacingRight=3;rotatable=0;labelPosition=right;points=[];portConstraint=eastwest;strokeColor=inherit;" parent="gF1a9MIEd-exsyjLZ0xj-2" vertex="1">
          <mxGeometry y="40" width="160" height="8" as="geometry" />
        </mxCell>
        <mxCell id="gF1a9MIEd-exsyjLZ0xj-5" value="+ getEstado(): Estado&lt;br&gt;- setEstado(Estado): void&lt;br&gt;+ comer(): void&lt;br style=&quot;border-color: var(--border-color);&quot;&gt;+ tomar(): void&lt;br style=&quot;border-color: var(--border-color);&quot;&gt;+ recibirMimos(): void&lt;br style=&quot;border-color: var(--border-color);&quot;&gt;+ recibirGolpe(): void" style="text;strokeColor=none;fillColor=none;align=left;verticalAlign=top;spacingLeft=4;spacingRight=4;overflow=hidden;rotatable=0;points=[[0,0.5],[1,0.5]];portConstraint=eastwest;whiteSpace=wrap;html=1;" parent="gF1a9MIEd-exsyjLZ0xj-2" vertex="1">
          <mxGeometry y="48" width="160" height="100" as="geometry" />
        </mxCell>
        <mxCell id="gF1a9MIEd-exsyjLZ0xj-7" value="EstadoFeliz" style="swimlane;fontStyle=1;align=center;verticalAlign=top;childLayout=stackLayout;horizontal=1;startSize=26;horizontalStack=0;resizeParent=1;resizeParentMax=0;resizeLast=0;collapsible=1;marginBottom=0;whiteSpace=wrap;html=1;" parent="1" vertex="1">
          <mxGeometry x="30" y="290" width="160" height="108" as="geometry" />
        </mxCell>
        <mxCell id="gF1a9MIEd-exsyjLZ0xj-8" value="&amp;nbsp;" style="text;strokeColor=none;fillColor=none;align=left;verticalAlign=top;spacingLeft=4;spacingRight=4;overflow=hidden;rotatable=0;points=[[0,0.5],[1,0.5]];portConstraint=eastwest;whiteSpace=wrap;html=1;" parent="gF1a9MIEd-exsyjLZ0xj-7" vertex="1">
          <mxGeometry y="26" width="160" height="14" as="geometry" />
        </mxCell>
        <mxCell id="gF1a9MIEd-exsyjLZ0xj-9" value="" style="line;strokeWidth=1;fillColor=none;align=left;verticalAlign=middle;spacingTop=-1;spacingLeft=3;spacingRight=3;rotatable=0;labelPosition=right;points=[];portConstraint=eastwest;strokeColor=inherit;" parent="gF1a9MIEd-exsyjLZ0xj-7" vertex="1">
          <mxGeometry y="40" width="160" height="8" as="geometry" />
        </mxCell>
        <mxCell id="gF1a9MIEd-exsyjLZ0xj-10" value="+ comer(): Estado&lt;br style=&quot;border-color: var(--border-color);&quot;&gt;+ tomar(): Estado&lt;br style=&quot;border-color: var(--border-color);&quot;&gt;+ recibirMimos(): Estado" style="text;strokeColor=none;fillColor=none;align=left;verticalAlign=top;spacingLeft=4;spacingRight=4;overflow=hidden;rotatable=0;points=[[0,0.5],[1,0.5]];portConstraint=eastwest;whiteSpace=wrap;html=1;" parent="gF1a9MIEd-exsyjLZ0xj-7" vertex="1">
          <mxGeometry y="48" width="160" height="60" as="geometry" />
        </mxCell>
        <mxCell id="gF1a9MIEd-exsyjLZ0xj-12" value="EstadoTriste" style="swimlane;fontStyle=1;align=center;verticalAlign=top;childLayout=stackLayout;horizontal=1;startSize=26;horizontalStack=0;resizeParent=1;resizeParentMax=0;resizeLast=0;collapsible=1;marginBottom=0;whiteSpace=wrap;html=1;" parent="1" vertex="1">
          <mxGeometry x="570" y="290" width="160" height="108" as="geometry" />
        </mxCell>
        <mxCell id="gF1a9MIEd-exsyjLZ0xj-13" value="&amp;nbsp;" style="text;strokeColor=none;fillColor=none;align=left;verticalAlign=top;spacingLeft=4;spacingRight=4;overflow=hidden;rotatable=0;points=[[0,0.5],[1,0.5]];portConstraint=eastwest;whiteSpace=wrap;html=1;" parent="gF1a9MIEd-exsyjLZ0xj-12" vertex="1">
          <mxGeometry y="26" width="160" height="14" as="geometry" />
        </mxCell>
        <mxCell id="gF1a9MIEd-exsyjLZ0xj-14" value="" style="line;strokeWidth=1;fillColor=none;align=left;verticalAlign=middle;spacingTop=-1;spacingLeft=3;spacingRight=3;rotatable=0;labelPosition=right;points=[];portConstraint=eastwest;strokeColor=inherit;" parent="gF1a9MIEd-exsyjLZ0xj-12" vertex="1">
          <mxGeometry y="40" width="160" height="8" as="geometry" />
        </mxCell>
        <mxCell id="gF1a9MIEd-exsyjLZ0xj-15" value="+ comer(): Estado&lt;br style=&quot;border-color: var(--border-color);&quot;&gt;+ tomar(): Estado&lt;br style=&quot;border-color: var(--border-color);&quot;&gt;+ recibirMimos(): Estado" style="text;strokeColor=none;fillColor=none;align=left;verticalAlign=top;spacingLeft=4;spacingRight=4;overflow=hidden;rotatable=0;points=[[0,0.5],[1,0.5]];portConstraint=eastwest;whiteSpace=wrap;html=1;" parent="gF1a9MIEd-exsyjLZ0xj-12" vertex="1">
          <mxGeometry y="48" width="160" height="60" as="geometry" />
        </mxCell>
        <mxCell id="gF1a9MIEd-exsyjLZ0xj-16" value="EstadoHambriento" style="swimlane;fontStyle=1;align=center;verticalAlign=top;childLayout=stackLayout;horizontal=1;startSize=26;horizontalStack=0;resizeParent=1;resizeParentMax=0;resizeLast=0;collapsible=1;marginBottom=0;whiteSpace=wrap;html=1;" parent="1" vertex="1">
          <mxGeometry x="210" y="290" width="160" height="108" as="geometry" />
        </mxCell>
        <mxCell id="gF1a9MIEd-exsyjLZ0xj-17" value="&amp;nbsp;" style="text;strokeColor=none;fillColor=none;align=left;verticalAlign=top;spacingLeft=4;spacingRight=4;overflow=hidden;rotatable=0;points=[[0,0.5],[1,0.5]];portConstraint=eastwest;whiteSpace=wrap;html=1;" parent="gF1a9MIEd-exsyjLZ0xj-16" vertex="1">
          <mxGeometry y="26" width="160" height="14" as="geometry" />
        </mxCell>
        <mxCell id="gF1a9MIEd-exsyjLZ0xj-18" value="" style="line;strokeWidth=1;fillColor=none;align=left;verticalAlign=middle;spacingTop=-1;spacingLeft=3;spacingRight=3;rotatable=0;labelPosition=right;points=[];portConstraint=eastwest;strokeColor=inherit;" parent="gF1a9MIEd-exsyjLZ0xj-16" vertex="1">
          <mxGeometry y="40" width="160" height="8" as="geometry" />
        </mxCell>
        <mxCell id="gF1a9MIEd-exsyjLZ0xj-19" value="+ comer(): Estado&lt;br style=&quot;border-color: var(--border-color);&quot;&gt;+ tomar(): Estado&lt;br style=&quot;border-color: var(--border-color);&quot;&gt;+ recibirMimos(): Estado" style="text;strokeColor=none;fillColor=none;align=left;verticalAlign=top;spacingLeft=4;spacingRight=4;overflow=hidden;rotatable=0;points=[[0,0.5],[1,0.5]];portConstraint=eastwest;whiteSpace=wrap;html=1;" parent="gF1a9MIEd-exsyjLZ0xj-16" vertex="1">
          <mxGeometry y="48" width="160" height="60" as="geometry" />
        </mxCell>
        <mxCell id="gF1a9MIEd-exsyjLZ0xj-20" value="EstadoSediente" style="swimlane;fontStyle=1;align=center;verticalAlign=top;childLayout=stackLayout;horizontal=1;startSize=26;horizontalStack=0;resizeParent=1;resizeParentMax=0;resizeLast=0;collapsible=1;marginBottom=0;whiteSpace=wrap;html=1;" parent="1" vertex="1">
          <mxGeometry x="390" y="290" width="160" height="108" as="geometry" />
        </mxCell>
        <mxCell id="gF1a9MIEd-exsyjLZ0xj-21" value="&amp;nbsp;" style="text;strokeColor=none;fillColor=none;align=left;verticalAlign=top;spacingLeft=4;spacingRight=4;overflow=hidden;rotatable=0;points=[[0,0.5],[1,0.5]];portConstraint=eastwest;whiteSpace=wrap;html=1;" parent="gF1a9MIEd-exsyjLZ0xj-20" vertex="1">
          <mxGeometry y="26" width="160" height="14" as="geometry" />
        </mxCell>
        <mxCell id="gF1a9MIEd-exsyjLZ0xj-22" value="" style="line;strokeWidth=1;fillColor=none;align=left;verticalAlign=middle;spacingTop=-1;spacingLeft=3;spacingRight=3;rotatable=0;labelPosition=right;points=[];portConstraint=eastwest;strokeColor=inherit;" parent="gF1a9MIEd-exsyjLZ0xj-20" vertex="1">
          <mxGeometry y="40" width="160" height="8" as="geometry" />
        </mxCell>
        <mxCell id="gF1a9MIEd-exsyjLZ0xj-23" value="+ comer(): Estado&lt;br style=&quot;border-color: var(--border-color);&quot;&gt;+ tomar(): Estado&lt;br style=&quot;border-color: var(--border-color);&quot;&gt;+ recibirMimos(): Estado" style="text;strokeColor=none;fillColor=none;align=left;verticalAlign=top;spacingLeft=4;spacingRight=4;overflow=hidden;rotatable=0;points=[[0,0.5],[1,0.5]];portConstraint=eastwest;whiteSpace=wrap;html=1;" parent="gF1a9MIEd-exsyjLZ0xj-20" vertex="1">
          <mxGeometry y="48" width="160" height="60" as="geometry" />
        </mxCell>
        <mxCell id="gF1a9MIEd-exsyjLZ0xj-27" value="" style="endArrow=block;dashed=1;endFill=0;endSize=12;html=1;rounded=0;entryX=0;entryY=0.75;entryDx=0;entryDy=0;exitX=0.5;exitY=0;exitDx=0;exitDy=0;" parent="1" source="gF1a9MIEd-exsyjLZ0xj-7" target="gF1a9MIEd-exsyjLZ0xj-44" edge="1">
          <mxGeometry width="160" relative="1" as="geometry">
            <mxPoint x="90" y="250" as="sourcePoint" />
            <mxPoint x="320" y="200" as="targetPoint" />
            <Array as="points">
              <mxPoint x="110" y="180" />
            </Array>
          </mxGeometry>
        </mxCell>
        <mxCell id="gF1a9MIEd-exsyjLZ0xj-28" value="" style="endArrow=block;dashed=1;endFill=0;endSize=12;html=1;rounded=0;exitX=0.75;exitY=0;exitDx=0;exitDy=0;entryX=0.25;entryY=1;entryDx=0;entryDy=0;" parent="1" source="gF1a9MIEd-exsyjLZ0xj-16" target="gF1a9MIEd-exsyjLZ0xj-44" edge="1">
          <mxGeometry width="160" relative="1" as="geometry">
            <mxPoint x="270" y="280" as="sourcePoint" />
            <mxPoint x="327" y="264" as="targetPoint" />
          </mxGeometry>
        </mxCell>
        <mxCell id="gF1a9MIEd-exsyjLZ0xj-30" value="" style="endArrow=block;dashed=1;endFill=0;endSize=12;html=1;rounded=0;exitX=0.25;exitY=0;exitDx=0;exitDy=0;entryX=0.75;entryY=1;entryDx=0;entryDy=0;" parent="1" source="gF1a9MIEd-exsyjLZ0xj-20" target="gF1a9MIEd-exsyjLZ0xj-44" edge="1">
          <mxGeometry width="160" relative="1" as="geometry">
            <mxPoint x="390" y="248" as="sourcePoint" />
            <mxPoint x="395.3499999999999" y="239.3599999999999" as="targetPoint" />
          </mxGeometry>
        </mxCell>
        <mxCell id="gF1a9MIEd-exsyjLZ0xj-31" value="" style="endArrow=block;dashed=1;endFill=0;endSize=12;html=1;rounded=0;exitX=0.554;exitY=0.047;exitDx=0;exitDy=0;entryX=1;entryY=0.75;entryDx=0;entryDy=0;exitPerimeter=0;" parent="1" source="gF1a9MIEd-exsyjLZ0xj-12" target="gF1a9MIEd-exsyjLZ0xj-44" edge="1">
          <mxGeometry width="160" relative="1" as="geometry">
            <mxPoint x="650" y="280" as="sourcePoint" />
            <mxPoint x="430" y="210" as="targetPoint" />
            <Array as="points">
              <mxPoint x="660" y="180" />
            </Array>
          </mxGeometry>
        </mxCell>
        <mxCell id="gF1a9MIEd-exsyjLZ0xj-44" value="&lt;p style=&quot;margin:0px;margin-top:4px;text-align:center;&quot;&gt;&lt;i&gt;&amp;lt;&amp;lt;Interface&amp;gt;&amp;gt;&lt;/i&gt;&lt;br&gt;&lt;b&gt;&lt;i&gt;Estado&lt;/i&gt;&lt;/b&gt;&lt;/p&gt;&lt;hr size=&quot;1&quot;&gt;&lt;p style=&quot;margin:0px;margin-left:4px;&quot;&gt;&lt;br&gt;&lt;/p&gt;&lt;hr size=&quot;1&quot;&gt;&lt;p style=&quot;margin:0px;margin-left:4px;&quot;&gt;&lt;i&gt;+ comer(): Estado&lt;br style=&quot;border-color: var(--border-color);&quot;&gt;+ tomar(): Estado&lt;br style=&quot;border-color: var(--border-color);&quot;&gt;+ recibirMimos(): Estado&lt;/i&gt;&lt;br style=&quot;border-color: var(--border-color);&quot;&gt;+ recibirGolpe(): Estado&lt;/p&gt;" style="verticalAlign=top;align=left;overflow=fill;fontSize=12;fontFamily=Helvetica;html=1;whiteSpace=wrap;" parent="1" vertex="1">
          <mxGeometry x="285" y="70" width="185" height="150" as="geometry" />
        </mxCell>
        <mxCell id="uzs8icv4PWG_tnimGn_D-1" value="" style="endArrow=open;endSize=12;dashed=1;html=1;rounded=0;entryX=0.22;entryY=1.053;entryDx=0;entryDy=0;entryPerimeter=0;exitX=0.47;exitY=1.067;exitDx=0;exitDy=0;exitPerimeter=0;" parent="1" source="gF1a9MIEd-exsyjLZ0xj-15" target="gF1a9MIEd-exsyjLZ0xj-10" edge="1">
          <mxGeometry width="160" relative="1" as="geometry">
            <mxPoint x="320" y="550" as="sourcePoint" />
            <mxPoint x="90.20000000000005" y="450.0799999999999" as="targetPoint" />
            <Array as="points">
              <mxPoint x="645" y="480" />
              <mxPoint x="65" y="480" />
            </Array>
          </mxGeometry>
        </mxCell>
        <mxCell id="uzs8icv4PWG_tnimGn_D-3" value="" style="endArrow=open;endSize=12;dashed=1;html=1;rounded=0;entryX=0.49;entryY=1.053;entryDx=0;entryDy=0;entryPerimeter=0;exitX=0.51;exitY=1.12;exitDx=0;exitDy=0;exitPerimeter=0;" parent="1" source="gF1a9MIEd-exsyjLZ0xj-23" target="gF1a9MIEd-exsyjLZ0xj-10" edge="1">
          <mxGeometry width="160" relative="1" as="geometry">
            <mxPoint x="655" y="412" as="sourcePoint" />
            <mxPoint x="75" y="411" as="targetPoint" />
            <Array as="points">
              <mxPoint x="470" y="460" />
              <mxPoint x="108" y="460" />
            </Array>
          </mxGeometry>
        </mxCell>
        <mxCell id="uzs8icv4PWG_tnimGn_D-4" value="" style="endArrow=open;endSize=12;dashed=1;html=1;rounded=0;entryX=0.76;entryY=1.053;entryDx=0;entryDy=0;entryPerimeter=0;exitX=0.505;exitY=1.067;exitDx=0;exitDy=0;exitPerimeter=0;" parent="1" source="gF1a9MIEd-exsyjLZ0xj-19" target="gF1a9MIEd-exsyjLZ0xj-10" edge="1">
          <mxGeometry width="160" relative="1" as="geometry">
            <mxPoint x="665" y="422" as="sourcePoint" />
            <mxPoint x="85" y="421" as="targetPoint" />
            <Array as="points">
              <mxPoint x="290" y="440" />
              <mxPoint x="152" y="440" />
            </Array>
          </mxGeometry>
        </mxCell>
      </root>
    </mxGraphModel>
  </diagram>
  <diagram id="pLZqd8qdYW_RHR1XWmlb" name="Hambriento">
    <mxGraphModel dx="1034" dy="470" grid="1" gridSize="10" guides="1" tooltips="1" connect="1" arrows="1" fold="1" page="1" pageScale="1" pageWidth="827" pageHeight="1169" math="0" shadow="0">
      <root>
        <mxCell id="0" />
        <mxCell id="1" parent="0" />
        <mxCell id="s3LsVuRwAir_h__qt_x4-1" value=":Tamagochi" style="shape=umlLifeline;perimeter=lifelinePerimeter;whiteSpace=wrap;html=1;container=0;dropTarget=0;collapsible=0;recursiveResize=0;outlineConnect=0;portConstraint=eastwest;newEdgeStyle={&quot;edgeStyle&quot;:&quot;elbowEdgeStyle&quot;,&quot;elbow&quot;:&quot;vertical&quot;,&quot;curved&quot;:0,&quot;rounded&quot;:0};" parent="1" vertex="1">
          <mxGeometry x="60" y="40" width="100" height="340" as="geometry" />
        </mxCell>
        <mxCell id="s3LsVuRwAir_h__qt_x4-2" value="" style="html=1;points=[];perimeter=orthogonalPerimeter;outlineConnect=0;targetShapes=umlLifeline;portConstraint=eastwest;newEdgeStyle={&quot;edgeStyle&quot;:&quot;elbowEdgeStyle&quot;,&quot;elbow&quot;:&quot;vertical&quot;,&quot;curved&quot;:0,&quot;rounded&quot;:0};" parent="s3LsVuRwAir_h__qt_x4-1" vertex="1">
          <mxGeometry x="45" y="70" width="10" height="250" as="geometry" />
        </mxCell>
        <mxCell id="s3LsVuRwAir_h__qt_x4-3" value="getEstado()" style="html=1;verticalAlign=bottom;startArrow=oval;endArrow=block;startSize=8;edgeStyle=elbowEdgeStyle;elbow=vertical;curved=0;rounded=0;" parent="s3LsVuRwAir_h__qt_x4-1" target="s3LsVuRwAir_h__qt_x4-2" edge="1">
          <mxGeometry relative="1" as="geometry">
            <mxPoint x="-40" y="70" as="sourcePoint" />
          </mxGeometry>
        </mxCell>
        <mxCell id="OFNguRm0jjeq558_dtSO-4" value="" style="html=1;points=[[0,0,0,0,5],[0,1,0,0,-5],[1,0,0,0,5],[1,1,0,0,-5]];perimeter=orthogonalPerimeter;outlineConnect=0;targetShapes=umlLifeline;portConstraint=eastwest;newEdgeStyle={&quot;curved&quot;:0,&quot;rounded&quot;:0};" parent="s3LsVuRwAir_h__qt_x4-1" vertex="1">
          <mxGeometry x="51" y="250" width="10" height="40" as="geometry" />
        </mxCell>
        <mxCell id="OFNguRm0jjeq558_dtSO-5" value="setEstado(EstadoFeliz)" style="html=1;align=left;spacingLeft=2;endArrow=block;rounded=0;edgeStyle=orthogonalEdgeStyle;curved=0;rounded=0;" parent="s3LsVuRwAir_h__qt_x4-1" target="OFNguRm0jjeq558_dtSO-4" edge="1">
          <mxGeometry relative="1" as="geometry">
            <mxPoint x="54" y="240" as="sourcePoint" />
            <Array as="points">
              <mxPoint x="84" y="240" />
              <mxPoint x="84" y="270" />
            </Array>
            <mxPoint x="66" y="270" as="targetPoint" />
          </mxGeometry>
        </mxCell>
        <mxCell id="s3LsVuRwAir_h__qt_x4-5" value=":EstadoHambriento" style="shape=umlLifeline;perimeter=lifelinePerimeter;whiteSpace=wrap;html=1;container=0;dropTarget=0;collapsible=0;recursiveResize=0;outlineConnect=0;portConstraint=eastwest;newEdgeStyle={&quot;edgeStyle&quot;:&quot;elbowEdgeStyle&quot;,&quot;elbow&quot;:&quot;vertical&quot;,&quot;curved&quot;:0,&quot;rounded&quot;:0};" parent="1" vertex="1">
          <mxGeometry x="240" y="40" width="120" height="340" as="geometry" />
        </mxCell>
        <mxCell id="s3LsVuRwAir_h__qt_x4-6" value="" style="html=1;points=[];perimeter=orthogonalPerimeter;outlineConnect=0;targetShapes=umlLifeline;portConstraint=eastwest;newEdgeStyle={&quot;edgeStyle&quot;:&quot;elbowEdgeStyle&quot;,&quot;elbow&quot;:&quot;vertical&quot;,&quot;curved&quot;:0,&quot;rounded&quot;:0};" parent="s3LsVuRwAir_h__qt_x4-5" vertex="1">
          <mxGeometry x="55" y="150" width="10" height="70" as="geometry" />
        </mxCell>
        <mxCell id="zt0cxhJF0XTcZw9XV4lG-1" value="EstadoHambriento" style="html=1;verticalAlign=bottom;endArrow=open;dashed=1;endSize=8;edgeStyle=elbowEdgeStyle;elbow=vertical;curved=0;rounded=0;" parent="1" edge="1">
          <mxGeometry relative="1" as="geometry">
            <mxPoint x="10" y="140" as="targetPoint" />
            <Array as="points">
              <mxPoint x="75" y="140" />
            </Array>
            <mxPoint x="100" y="140" as="sourcePoint" />
          </mxGeometry>
        </mxCell>
        <mxCell id="zt0cxhJF0XTcZw9XV4lG-2" value="comer()" style="html=1;verticalAlign=bottom;startArrow=oval;endArrow=block;startSize=8;edgeStyle=elbowEdgeStyle;elbow=vertical;curved=0;rounded=0;" parent="1" target="s3LsVuRwAir_h__qt_x4-2" edge="1">
          <mxGeometry relative="1" as="geometry">
            <mxPoint x="20" y="170" as="sourcePoint" />
            <mxPoint x="100" y="170" as="targetPoint" />
          </mxGeometry>
        </mxCell>
        <mxCell id="s3LsVuRwAir_h__qt_x4-8" value="EstadoFeliz" style="html=1;verticalAlign=bottom;endArrow=open;dashed=1;endSize=8;edgeStyle=elbowEdgeStyle;elbow=vertical;curved=0;rounded=0;" parent="1" source="s3LsVuRwAir_h__qt_x4-6" edge="1">
          <mxGeometry relative="1" as="geometry">
            <mxPoint x="120" y="244.5" as="targetPoint" />
            <Array as="points">
              <mxPoint x="215" y="244.5" />
            </Array>
            <mxPoint x="290" y="244.5" as="sourcePoint" />
          </mxGeometry>
        </mxCell>
        <mxCell id="s3LsVuRwAir_h__qt_x4-4" value="" style="html=1;points=[];perimeter=orthogonalPerimeter;outlineConnect=0;targetShapes=umlLifeline;portConstraint=eastwest;newEdgeStyle={&quot;edgeStyle&quot;:&quot;elbowEdgeStyle&quot;,&quot;elbow&quot;:&quot;vertical&quot;,&quot;curved&quot;:0,&quot;rounded&quot;:0};" parent="1" vertex="1">
          <mxGeometry x="110" y="230" width="10" height="40" as="geometry" />
        </mxCell>
        <mxCell id="s3LsVuRwAir_h__qt_x4-7" value="comer()" style="html=1;verticalAlign=bottom;endArrow=block;edgeStyle=elbowEdgeStyle;elbow=vertical;curved=0;rounded=0;" parent="1" target="s3LsVuRwAir_h__qt_x4-5" edge="1">
          <mxGeometry relative="1" as="geometry">
            <mxPoint x="115" y="200" as="sourcePoint" />
            <Array as="points">
              <mxPoint x="200" y="200" />
            </Array>
            <mxPoint x="285" y="200" as="targetPoint" />
          </mxGeometry>
        </mxCell>
        <mxCell id="OFNguRm0jjeq558_dtSO-3" value="EstadoFeliz" style="html=1;verticalAlign=bottom;endArrow=open;dashed=1;endSize=8;edgeStyle=elbowEdgeStyle;elbow=vertical;curved=0;rounded=0;" parent="1" edge="1">
          <mxGeometry relative="1" as="geometry">
            <mxPoint x="10" y="350" as="targetPoint" />
            <Array as="points">
              <mxPoint x="75" y="350" />
            </Array>
            <mxPoint x="100" y="350" as="sourcePoint" />
          </mxGeometry>
        </mxCell>
      </root>
    </mxGraphModel>
  </diagram>
  <diagram id="m5VwZkLOf0w7YB0Z_tCE" name="Sediento">
    <mxGraphModel dx="1282" dy="501" grid="1" gridSize="10" guides="1" tooltips="1" connect="1" arrows="1" fold="1" page="1" pageScale="1" pageWidth="827" pageHeight="1169" math="0" shadow="0">
      <root>
        <mxCell id="0" />
        <mxCell id="1" parent="0" />
        <mxCell id="IYd66hr17s8_wbeHEH9x-1" value=":Tamagochi" style="shape=umlLifeline;perimeter=lifelinePerimeter;whiteSpace=wrap;html=1;container=0;dropTarget=0;collapsible=0;recursiveResize=0;outlineConnect=0;portConstraint=eastwest;newEdgeStyle={&quot;edgeStyle&quot;:&quot;elbowEdgeStyle&quot;,&quot;elbow&quot;:&quot;vertical&quot;,&quot;curved&quot;:0,&quot;rounded&quot;:0};" vertex="1" parent="1">
          <mxGeometry x="60" y="40" width="100" height="340" as="geometry" />
        </mxCell>
        <mxCell id="IYd66hr17s8_wbeHEH9x-2" value="" style="html=1;points=[];perimeter=orthogonalPerimeter;outlineConnect=0;targetShapes=umlLifeline;portConstraint=eastwest;newEdgeStyle={&quot;edgeStyle&quot;:&quot;elbowEdgeStyle&quot;,&quot;elbow&quot;:&quot;vertical&quot;,&quot;curved&quot;:0,&quot;rounded&quot;:0};" vertex="1" parent="IYd66hr17s8_wbeHEH9x-1">
          <mxGeometry x="45" y="70" width="10" height="250" as="geometry" />
        </mxCell>
        <mxCell id="IYd66hr17s8_wbeHEH9x-3" value="getEstado()" style="html=1;verticalAlign=bottom;startArrow=oval;endArrow=block;startSize=8;edgeStyle=elbowEdgeStyle;elbow=vertical;curved=0;rounded=0;" edge="1" parent="IYd66hr17s8_wbeHEH9x-1" target="IYd66hr17s8_wbeHEH9x-2">
          <mxGeometry relative="1" as="geometry">
            <mxPoint x="-40" y="70" as="sourcePoint" />
          </mxGeometry>
        </mxCell>
        <mxCell id="IYd66hr17s8_wbeHEH9x-4" value="" style="html=1;points=[[0,0,0,0,5],[0,1,0,0,-5],[1,0,0,0,5],[1,1,0,0,-5]];perimeter=orthogonalPerimeter;outlineConnect=0;targetShapes=umlLifeline;portConstraint=eastwest;newEdgeStyle={&quot;curved&quot;:0,&quot;rounded&quot;:0};" vertex="1" parent="IYd66hr17s8_wbeHEH9x-1">
          <mxGeometry x="51" y="250" width="10" height="40" as="geometry" />
        </mxCell>
        <mxCell id="IYd66hr17s8_wbeHEH9x-5" value="setEstado(EstadoTriste)" style="html=1;align=left;spacingLeft=2;endArrow=block;rounded=0;edgeStyle=orthogonalEdgeStyle;curved=0;rounded=0;" edge="1" parent="IYd66hr17s8_wbeHEH9x-1" target="IYd66hr17s8_wbeHEH9x-4">
          <mxGeometry relative="1" as="geometry">
            <mxPoint x="54" y="240" as="sourcePoint" />
            <Array as="points">
              <mxPoint x="84" y="240" />
              <mxPoint x="84" y="270" />
            </Array>
            <mxPoint x="66" y="270" as="targetPoint" />
          </mxGeometry>
        </mxCell>
        <mxCell id="IYd66hr17s8_wbeHEH9x-6" value=":EstadoSediento" style="shape=umlLifeline;perimeter=lifelinePerimeter;whiteSpace=wrap;html=1;container=0;dropTarget=0;collapsible=0;recursiveResize=0;outlineConnect=0;portConstraint=eastwest;newEdgeStyle={&quot;edgeStyle&quot;:&quot;elbowEdgeStyle&quot;,&quot;elbow&quot;:&quot;vertical&quot;,&quot;curved&quot;:0,&quot;rounded&quot;:0};" vertex="1" parent="1">
          <mxGeometry x="240" y="40" width="120" height="340" as="geometry" />
        </mxCell>
        <mxCell id="IYd66hr17s8_wbeHEH9x-7" value="" style="html=1;points=[];perimeter=orthogonalPerimeter;outlineConnect=0;targetShapes=umlLifeline;portConstraint=eastwest;newEdgeStyle={&quot;edgeStyle&quot;:&quot;elbowEdgeStyle&quot;,&quot;elbow&quot;:&quot;vertical&quot;,&quot;curved&quot;:0,&quot;rounded&quot;:0};" vertex="1" parent="IYd66hr17s8_wbeHEH9x-6">
          <mxGeometry x="55" y="150" width="10" height="70" as="geometry" />
        </mxCell>
        <mxCell id="IYd66hr17s8_wbeHEH9x-8" value="EstadoSediento" style="html=1;verticalAlign=bottom;endArrow=open;dashed=1;endSize=8;edgeStyle=elbowEdgeStyle;elbow=vertical;curved=0;rounded=0;" edge="1" parent="1">
          <mxGeometry relative="1" as="geometry">
            <mxPoint x="10" y="140" as="targetPoint" />
            <Array as="points">
              <mxPoint x="75" y="140" />
            </Array>
            <mxPoint x="100" y="140" as="sourcePoint" />
          </mxGeometry>
        </mxCell>
        <mxCell id="IYd66hr17s8_wbeHEH9x-9" value="recibirGolpe()" style="html=1;verticalAlign=bottom;startArrow=oval;endArrow=block;startSize=8;edgeStyle=elbowEdgeStyle;elbow=vertical;curved=0;rounded=0;" edge="1" parent="1" target="IYd66hr17s8_wbeHEH9x-2">
          <mxGeometry relative="1" as="geometry">
            <mxPoint x="20" y="170" as="sourcePoint" />
            <mxPoint x="100" y="170" as="targetPoint" />
          </mxGeometry>
        </mxCell>
        <mxCell id="IYd66hr17s8_wbeHEH9x-10" value="EstadoTriste" style="html=1;verticalAlign=bottom;endArrow=open;dashed=1;endSize=8;edgeStyle=elbowEdgeStyle;elbow=horizontal;curved=0;rounded=0;" edge="1" parent="1" source="IYd66hr17s8_wbeHEH9x-7">
          <mxGeometry relative="1" as="geometry">
            <mxPoint x="120" y="244.5" as="targetPoint" />
            <Array as="points">
              <mxPoint x="215" y="244.5" />
            </Array>
            <mxPoint x="290" y="244.5" as="sourcePoint" />
          </mxGeometry>
        </mxCell>
        <mxCell id="IYd66hr17s8_wbeHEH9x-11" value="" style="html=1;points=[];perimeter=orthogonalPerimeter;outlineConnect=0;targetShapes=umlLifeline;portConstraint=eastwest;newEdgeStyle={&quot;edgeStyle&quot;:&quot;elbowEdgeStyle&quot;,&quot;elbow&quot;:&quot;vertical&quot;,&quot;curved&quot;:0,&quot;rounded&quot;:0};" vertex="1" parent="1">
          <mxGeometry x="110" y="230" width="10" height="40" as="geometry" />
        </mxCell>
        <mxCell id="IYd66hr17s8_wbeHEH9x-12" value="recibirGolpe()" style="html=1;verticalAlign=bottom;endArrow=block;edgeStyle=elbowEdgeStyle;elbow=vertical;curved=0;rounded=0;" edge="1" parent="1" target="IYd66hr17s8_wbeHEH9x-6">
          <mxGeometry relative="1" as="geometry">
            <mxPoint x="115" y="200" as="sourcePoint" />
            <Array as="points">
              <mxPoint x="200" y="200" />
            </Array>
            <mxPoint x="285" y="200" as="targetPoint" />
          </mxGeometry>
        </mxCell>
        <mxCell id="IYd66hr17s8_wbeHEH9x-13" value="EstadoTriste" style="html=1;verticalAlign=bottom;endArrow=open;dashed=1;endSize=8;edgeStyle=elbowEdgeStyle;elbow=horizontal;curved=0;rounded=0;" edge="1" parent="1">
          <mxGeometry relative="1" as="geometry">
            <mxPoint x="10" y="350" as="targetPoint" />
            <Array as="points">
              <mxPoint x="75" y="350" />
            </Array>
            <mxPoint x="100" y="350" as="sourcePoint" />
          </mxGeometry>
        </mxCell>
      </root>
    </mxGraphModel>
  </diagram>
  <diagram id="0DR1nzw_nkO3cDWh5Qdt" name="Triste">
    <mxGraphModel dx="1034" dy="470" grid="1" gridSize="10" guides="1" tooltips="1" connect="1" arrows="1" fold="1" page="1" pageScale="1" pageWidth="827" pageHeight="1169" math="0" shadow="0">
      <root>
        <mxCell id="0" />
        <mxCell id="1" parent="0" />
        <mxCell id="9DCXGP7K_LvwyMp1isM--1" value=":Tamagochi" style="shape=umlLifeline;perimeter=lifelinePerimeter;whiteSpace=wrap;html=1;container=0;dropTarget=0;collapsible=0;recursiveResize=0;outlineConnect=0;portConstraint=eastwest;newEdgeStyle={&quot;edgeStyle&quot;:&quot;elbowEdgeStyle&quot;,&quot;elbow&quot;:&quot;vertical&quot;,&quot;curved&quot;:0,&quot;rounded&quot;:0};" parent="1" vertex="1">
          <mxGeometry x="60" y="40" width="100" height="340" as="geometry" />
        </mxCell>
        <mxCell id="9DCXGP7K_LvwyMp1isM--2" value="" style="html=1;points=[];perimeter=orthogonalPerimeter;outlineConnect=0;targetShapes=umlLifeline;portConstraint=eastwest;newEdgeStyle={&quot;edgeStyle&quot;:&quot;elbowEdgeStyle&quot;,&quot;elbow&quot;:&quot;vertical&quot;,&quot;curved&quot;:0,&quot;rounded&quot;:0};" parent="9DCXGP7K_LvwyMp1isM--1" vertex="1">
          <mxGeometry x="45" y="70" width="10" height="250" as="geometry" />
        </mxCell>
        <mxCell id="9DCXGP7K_LvwyMp1isM--3" value="getEstado()" style="html=1;verticalAlign=bottom;startArrow=oval;endArrow=block;startSize=8;edgeStyle=elbowEdgeStyle;elbow=vertical;curved=0;rounded=0;" parent="9DCXGP7K_LvwyMp1isM--1" target="9DCXGP7K_LvwyMp1isM--2" edge="1">
          <mxGeometry relative="1" as="geometry">
            <mxPoint x="-40" y="70" as="sourcePoint" />
          </mxGeometry>
        </mxCell>
        <mxCell id="9DCXGP7K_LvwyMp1isM--4" value="" style="html=1;points=[[0,0,0,0,5],[0,1,0,0,-5],[1,0,0,0,5],[1,1,0,0,-5]];perimeter=orthogonalPerimeter;outlineConnect=0;targetShapes=umlLifeline;portConstraint=eastwest;newEdgeStyle={&quot;curved&quot;:0,&quot;rounded&quot;:0};" parent="9DCXGP7K_LvwyMp1isM--1" vertex="1">
          <mxGeometry x="51" y="250" width="10" height="40" as="geometry" />
        </mxCell>
        <mxCell id="9DCXGP7K_LvwyMp1isM--5" value="setEstado(EstadoTriste)" style="html=1;align=left;spacingLeft=2;endArrow=block;rounded=0;edgeStyle=orthogonalEdgeStyle;curved=0;rounded=0;" parent="9DCXGP7K_LvwyMp1isM--1" target="9DCXGP7K_LvwyMp1isM--4" edge="1">
          <mxGeometry relative="1" as="geometry">
            <mxPoint x="54" y="240" as="sourcePoint" />
            <Array as="points">
              <mxPoint x="84" y="240" />
              <mxPoint x="84" y="270" />
            </Array>
            <mxPoint x="66" y="270" as="targetPoint" />
          </mxGeometry>
        </mxCell>
        <mxCell id="9DCXGP7K_LvwyMp1isM--6" value=":EstadoTriste" style="shape=umlLifeline;perimeter=lifelinePerimeter;whiteSpace=wrap;html=1;container=0;dropTarget=0;collapsible=0;recursiveResize=0;outlineConnect=0;portConstraint=eastwest;newEdgeStyle={&quot;edgeStyle&quot;:&quot;elbowEdgeStyle&quot;,&quot;elbow&quot;:&quot;vertical&quot;,&quot;curved&quot;:0,&quot;rounded&quot;:0};" parent="1" vertex="1">
          <mxGeometry x="240" y="40" width="120" height="340" as="geometry" />
        </mxCell>
        <mxCell id="9DCXGP7K_LvwyMp1isM--7" value="" style="html=1;points=[];perimeter=orthogonalPerimeter;outlineConnect=0;targetShapes=umlLifeline;portConstraint=eastwest;newEdgeStyle={&quot;edgeStyle&quot;:&quot;elbowEdgeStyle&quot;,&quot;elbow&quot;:&quot;vertical&quot;,&quot;curved&quot;:0,&quot;rounded&quot;:0};" parent="9DCXGP7K_LvwyMp1isM--6" vertex="1">
          <mxGeometry x="55" y="150" width="10" height="70" as="geometry" />
        </mxCell>
        <mxCell id="9DCXGP7K_LvwyMp1isM--8" value="EstadoTriste" style="html=1;verticalAlign=bottom;endArrow=open;dashed=1;endSize=8;edgeStyle=elbowEdgeStyle;elbow=vertical;curved=0;rounded=0;" parent="1" edge="1">
          <mxGeometry relative="1" as="geometry">
            <mxPoint x="10" y="140" as="targetPoint" />
            <Array as="points">
              <mxPoint x="75" y="140" />
            </Array>
            <mxPoint x="100" y="140" as="sourcePoint" />
          </mxGeometry>
        </mxCell>
        <mxCell id="9DCXGP7K_LvwyMp1isM--9" value="tomar()" style="html=1;verticalAlign=bottom;startArrow=oval;endArrow=block;startSize=8;edgeStyle=elbowEdgeStyle;elbow=vertical;curved=0;rounded=0;" parent="1" target="9DCXGP7K_LvwyMp1isM--2" edge="1">
          <mxGeometry relative="1" as="geometry">
            <mxPoint x="20" y="170" as="sourcePoint" />
            <mxPoint x="100" y="170" as="targetPoint" />
          </mxGeometry>
        </mxCell>
        <mxCell id="9DCXGP7K_LvwyMp1isM--10" value="EstadoTriste" style="html=1;verticalAlign=bottom;endArrow=open;dashed=1;endSize=8;edgeStyle=elbowEdgeStyle;elbow=horizontal;curved=0;rounded=0;" parent="1" source="9DCXGP7K_LvwyMp1isM--7" edge="1">
          <mxGeometry relative="1" as="geometry">
            <mxPoint x="120" y="244.5" as="targetPoint" />
            <Array as="points">
              <mxPoint x="215" y="244.5" />
            </Array>
            <mxPoint x="290" y="244.5" as="sourcePoint" />
          </mxGeometry>
        </mxCell>
        <mxCell id="9DCXGP7K_LvwyMp1isM--11" value="" style="html=1;points=[];perimeter=orthogonalPerimeter;outlineConnect=0;targetShapes=umlLifeline;portConstraint=eastwest;newEdgeStyle={&quot;edgeStyle&quot;:&quot;elbowEdgeStyle&quot;,&quot;elbow&quot;:&quot;vertical&quot;,&quot;curved&quot;:0,&quot;rounded&quot;:0};" parent="1" vertex="1">
          <mxGeometry x="110" y="230" width="10" height="40" as="geometry" />
        </mxCell>
        <mxCell id="9DCXGP7K_LvwyMp1isM--12" value="tomar()" style="html=1;verticalAlign=bottom;endArrow=block;edgeStyle=elbowEdgeStyle;elbow=vertical;curved=0;rounded=0;" parent="1" target="9DCXGP7K_LvwyMp1isM--6" edge="1">
          <mxGeometry relative="1" as="geometry">
            <mxPoint x="115" y="200" as="sourcePoint" />
            <Array as="points">
              <mxPoint x="200" y="200" />
            </Array>
            <mxPoint x="285" y="200" as="targetPoint" />
          </mxGeometry>
        </mxCell>
        <mxCell id="9DCXGP7K_LvwyMp1isM--13" value="EstadoTriste" style="html=1;verticalAlign=bottom;endArrow=open;dashed=1;endSize=8;edgeStyle=elbowEdgeStyle;elbow=horizontal;curved=0;rounded=0;" parent="1" edge="1">
          <mxGeometry relative="1" as="geometry">
            <mxPoint x="10" y="350" as="targetPoint" />
            <Array as="points">
              <mxPoint x="75" y="350" />
            </Array>
            <mxPoint x="100" y="350" as="sourcePoint" />
          </mxGeometry>
        </mxCell>
      </root>
    </mxGraphModel>
  </diagram>
</mxfile>
